<svg width="12" height="10" viewBox="0 0 12 10" fill="none" xmlns="http://www.w3.org/2000/svg">
<path fill-rule="evenodd" clip-rule="evenodd" d="M0.286133 5C0.286133 4.81059 0.361374 4.62895 0.495305 4.49502C0.629235 4.36108 0.810884 4.28584 1.00029 4.28584H9.27451L6.20792 1.22068C6.07382 1.08658 5.99849 0.904705 5.99849 0.715059C5.99849 0.525414 6.07382 0.343536 6.20792 0.209436C6.34202 0.0753365 6.5239 0 6.71354 0C6.90319 0 7.08507 0.0753365 7.21917 0.209436L11.5041 4.49438C11.5706 4.56072 11.6234 4.63952 11.6594 4.72629C11.6954 4.81305 11.7139 4.90606 11.7139 5C11.7139 5.09394 11.6954 5.18695 11.6594 5.27371C11.6234 5.36048 11.5706 5.43928 11.5041 5.50562L7.21917 9.79056C7.08507 9.92466 6.90319 10 6.71354 10C6.5239 10 6.34202 9.92466 6.20792 9.79056C6.07382 9.65647 5.99849 9.47459 5.99849 9.28494C5.99849 9.0953 6.07382 8.91342 6.20792 8.77932L9.27451 5.71416H1.00029C0.810884 5.71416 0.629235 5.63892 0.495305 5.50499C0.361374 5.37106 0.286133 5.18941 0.286133 5Z" fill="white"/>
</svg>
