<svg width="12" height="10" viewBox="0 0 12 10" fill="none" xmlns="http://www.w3.org/2000/svg">
<path fill-rule="evenodd" clip-rule="evenodd" d="M11.7139 5C11.7139 4.81059 11.6386 4.62895 11.5047 4.49502C11.3708 4.36109 11.1891 4.28584 10.9997 4.28584H2.72549L5.79208 1.22068C5.92618 1.08658 6.00151 0.904705 6.00151 0.715059C6.00151 0.525414 5.92618 0.343536 5.79208 0.209436C5.65798 0.0753365 5.4761 0 5.28646 0C5.09681 0 4.91493 0.0753365 4.78083 0.209436L0.495891 4.49438C0.429384 4.56072 0.376619 4.63952 0.340616 4.72629C0.304613 4.81305 0.286081 4.90606 0.286081 5C0.286081 5.09394 0.304613 5.18695 0.340616 5.27371C0.376619 5.36048 0.429384 5.43928 0.495891 5.50562L4.78083 9.79056C4.91493 9.92466 5.09681 10 5.28646 10C5.4761 10 5.65798 9.92466 5.79208 9.79056C5.92618 9.65647 6.00151 9.47459 6.00151 9.28494C6.00151 9.0953 5.92618 8.91342 5.79208 8.77932L2.72549 5.71416H10.9997C11.1891 5.71416 11.3708 5.63892 11.5047 5.50499C11.6386 5.37106 11.7139 5.18941 11.7139 5Z" fill="#7CCFC7"/>
</svg>
